{
  "accessors": [
    {
      "bufferView": 2,
      "componentType": 5126,
      "count": 65532,
      "max": [
        0.17264199256896973,
        7.165623188018799,
        0.8197029829025269
      ],
      "min": [
        -1.1772730350494385,
        5.995055198669434,
        -0.09945899993181229
      ],
      "type": "VEC3"
    },
    {
      "bufferView": 2,
      "byteOffset": 786384,
      "componentType": 5126,
      "count": 65532,
      "max": [
        0.9999004006385803,
        0.9999805688858032,
        0.999996542930603
      ],
      "min": [
        -0.9999852776527405,
        -0.9999936819076538,
        -0.9993563890457153
      ],
      "type": "VEC3"
    },
    {
      "bufferView": 1,
      "componentType": 5126,
      "count": 65532,
      "max": [
        0.999193012714386,
        0.9781799912452698
      ],
      "min": [
        0.006010000128298998,
        0.0
      ],
      "type": "VEC2"
    },
    {
      "bufferView": 0,
      "componentType": 5125,
      "count": 329547,
      "type": "SCALAR"
    },
    {
      "bufferView": 2,
      "byteOffset": 1572768,
      "componentType": 5126,
      "count": 65532,
      "max": [
        0.30969300866127014,
        7.166382789611816,
        0.7901530265808105
      ],
      "min": [
        -1.1268030405044556,
        5.7254438400268555,
        -0.5178769826889038
      ],
      "type": "VEC3"
    },
    {
      "bufferView": 2,
      "byteOffset": 2359152,
      "componentType": 5126,
      "count": 65532,
      "max": [
        0.9999961853027344,
        0.9999656081199646,
        0.9999542832374573
      ],
      "min": [
        -0.9999898076057434,
        -0.9999030232429504,
        -0.9999607801437378
      ],
      "type": "VEC3"
    },
    {
      "bufferView": 1,
      "byteOffset": 524256,
      "componentType": 5126,
      "count": 65532,
      "max": [
        1.0,
        0.9807549715042114
      ],
      "min": [
        0.0,
        0.013806000351905823
      ],
      "type": "VEC2"
    },
    {
      "bufferView": 0,
      "byteOffset": 1318188,
      "componentType": 5125,
      "count": 306969,
      "type": "SCALAR"
    },
    {
      "bufferView": 2,
      "byteOffset": 3145536,
      "componentType": 5126,
      "count": 65532,
      "max": [
        0.3511280119419098,
        6.926109790802002,
        0.7178999781608582
      ],
      "min": [
        -1.1324690580368042,
        5.729265213012695,
        -0.5834699869155884
      ],
      "type": "VEC3"
    },
    {
      "bufferView": 2,
      "byteOffset": 3931920,
      "componentType": 5126,
      "count": 65532,
      "max": [
        0.9999881982803345,
        0.9999857544898987,
        0.9999827742576599
      ],
      "min": [
        -0.9999653697013855,
        -0.9999805688858032,
        -0.9999945759773254
      ],
      "type": "VEC3"
    },
    {
      "bufferView": 1,
      "byteOffset": 1048512,
      "componentType": 5126,
      "count": 65532,
      "max": [
        0.999796986579895,
        0.9491329789161682
      ],
      "min": [
        0.0006150000263005495,
        4.999999873689376e-05
      ],
      "type": "VEC2"
    },
    {
      "bufferView": 0,
      "byteOffset": 2546064,
      "componentType": 5125,
      "count": 331728,
      "type": "SCALAR"
    },
    {
      "bufferView": 2,
      "byteOffset": 4718304,
      "componentType": 5126,
      "count": 33171,
      "max": [
        0.16200900077819824,
        7.125845909118652,
        0.6481840014457703
      ],
      "min": [
        -1.1481510400772095,
        6.013030052185059,
        -0.4571790099143982
      ],
      "type": "VEC3"
    },
    {
      "bufferView": 2,
      "byteOffset": 5116356,
      "componentType": 5126,
      "count": 33171,
      "max": [
        0.9998986124992371,
        0.9999027252197266,
        0.9999165534973145
      ],
      "min": [
        -0.9999416470527649,
        -0.9999030232429504,
        -0.9999415278434753
      ],
      "type": "VEC3"
    },
    {
      "bufferView": 1,
      "byteOffset": 1572768,
      "componentType": 5126,
      "count": 33171,
      "max": [
        0.9981589913368225,
        0.974494993686676
      ],
      "min": [
        0.00018600000475998968,
        0.014669000171124935
      ],
      "type": "VEC2"
    },
    {
      "bufferView": 0,
      "byteOffset": 3872976,
      "componentType": 5125,
      "count": 123630,
      "type": "SCALAR"
    }
  ],
  "asset": {
    "extras": {
      "author": "Digital Atlas of Ancient Life (https://sketchfab.com/DigitalAtlasOfAncientLife)",
      "license": "CC0-1.0 (http://creativecommons.org/publicdomain/zero/1.0/)",
      "source": "https://sketchfab.com/3d-models/igneous-rock-basalt-aa-lava-rock-cbbe1e1ae71b4e44acc6bf1b5245f1bb",
      "title": "Igneous rock: Basalt (A'a Lava Rock)"
    },
    "generator": "Sketchfab-13.74.0",
    "version": "2.0"
  },
  "bufferViews": [
    {
      "buffer": 0,
      "byteLength": 4367496,
      "name": "floatBufferViews",
      "target": 34963
    },
    {
      "buffer": 0,
      "byteLength": 1838136,
      "byteOffset": 4367496,
      "byteStride": 8,
      "name": "floatBufferViews",
      "target": 34962
    },
    {
      "buffer": 0,
      "byteLength": 5514408,
      "byteOffset": 6205632,
      "byteStride": 12,
      "name": "floatBufferViews",
      "target": 34962
    }
  ],
  "buffers": [
    {
      "byteLength": 11720040,
      "uri": "scene.bin"
    }
  ],
  "extensionsUsed": [
    "KHR_materials_unlit"
  ],
  "images": [
    {
      "uri": "textures/material_baseColor.jpeg"
    }
  ],
  "materials": [
    {
      "doubleSided": true,
      "extensions": {
        "KHR_materials_unlit": {}
      },
      "name": "material",
      "pbrMetallicRoughness": {
        "baseColorTexture": {
          "index": 0
        },
        "metallicFactor": 0.0
      }
    }
  ],
  "meshes": [
    {
      "name": "Object_0",
      "primitives": [
        {
          "attributes": {
            "NORMAL": 1,
            "POSITION": 0,
            "TEXCOORD_0": 2
          },
          "indices": 3,
          "material": 0,
          "mode": 4
        }
      ]
    },
    {
      "name": "Object_1",
      "primitives": [
        {
          "attributes": {
            "NORMAL": 5,
            "POSITION": 4,
            "TEXCOORD_0": 6
          },
          "indices": 7,
          "material": 0,
          "mode": 4
        }
      ]
    },
    {
      "name": "Object_2",
      "primitives": [
        {
          "attributes": {
            "NORMAL": 9,
            "POSITION": 8,
            "TEXCOORD_0": 10
          },
          "indices": 11,
          "material": 0,
          "mode": 4
        }
      ]
    },
    {
      "name": "Object_3",
      "primitives": [
        {
          "attributes": {
            "NORMAL": 13,
            "POSITION": 12,
            "TEXCOORD_0": 14
          },
          "indices": 15,
          "material": 0,
          "mode": 4
        }
      ]
    }
  ],
  "nodes": [
    {
      "children": [
        1
      ],
      "matrix": [
        0.8803572058677673,
        -0.4701835513114929,
        -0.0624384954571725,
        0.0,
        -0.46281635761260986,
        -0.8227406740188598,
        -0.3299981057643892,
        0.0,
        0.10378899425268173,
        0.3194137811660769,
        -0.9419143795967101,
        0.0,
        0.0,
        0.0,
        0.0,
        1.0
      ],
      "name": "Sketchfab_model"
    },
    {
      "children": [
        2,
        3,
        4,
        5
      ],
      "name": "Aa.obj.cleaner.materialmerger.gles"
    },
    {
      "mesh": 0,
      "name": "Object_2"
    },
    {
      "mesh": 1,
      "name": "Object_3"
    },
    {
      "mesh": 2,
      "name": "Object_4"
    },
    {
      "mesh": 3,
      "name": "Object_5"
    }
  ],
  "samplers": [
    {
      "magFilter": 9729,
      "minFilter": 9987,
      "wrapS": 10497,
      "wrapT": 10497
    }
  ],
  "scene": 0,
  "scenes": [
    {
      "name": "Sketchfab_Scene",
      "nodes": [
        0
      ]
    }
  ],
  "textures": [
    {
      "sampler": 0,
      "source": 0
    }
  ]
}
