{
  "accessors": [
    {
      "bufferView": 2,
      "componentType": 5126,
      "count": 65532,
      "max": [
        -0.7480490207672119,
        14.050104141235352,
        1.213384985923767
      ],
      "min": [
        -2.4545860290527344,
        11.189506530761719,
        -1.6531920433044434
      ],
      "type": "VEC3"
    },
    {
      "bufferView": 2,
      "byteOffset": 786384,
      "componentType": 5126,
      "count": 65532,
      "max": [
        0.9999132752418518,
        0.9998952746391296,
        0.9999640583992004
      ],
      "min": [
        -0.9999890327453613,
        -0.9998373985290527,
        -0.9996355772018433
      ],
      "type": "VEC3"
    },
    {
      "bufferView": 1,
      "componentType": 5126,
      "count": 65532,
      "max": [
        0.9206100106239319,
        1.0
      ],
      "min": [
        0.0,
        0.0
      ],
      "type": "VEC2"
    },
    {
      "bufferView": 0,
      "componentType": 5125,
      "count": 361329,
      "type": "SCALAR"
    },
    {
      "bufferView": 2,
      "byteOffset": 1572768,
      "componentType": 5126,
      "count": 41598,
      "max": [
        -0.7480490207672119,
        14.050104141235352,
        1.213384985923767
      ],
      "min": [
        -2.3130879402160645,
        11.6456880569458,
        -1.3289870023727417
      ],
      "type": "VEC3"
    },
    {
      "bufferView": 2,
      "byteOffset": 2071944,
      "componentType": 5126,
      "count": 41598,
      "max": [
        0.9998260736465454,
        0.9993776679039001,
        0.9989799857139587
      ],
      "min": [
        -0.9999844431877136,
        -0.9894260168075562,
        -0.9997715950012207
      ],
      "type": "VEC3"
    },
    {
      "bufferView": 1,
      "byteOffset": 524256,
      "componentType": 5126,
      "count": 41598,
      "max": [
        0.9091449975967407,
        0.996379017829895
      ],
      "min": [
        0.002845000009983778,
        0.004182000178843737
      ],
      "type": "VEC2"
    },
    {
      "bufferView": 0,
      "byteOffset": 1445316,
      "componentType": 5125,
      "count": 204813,
      "type": "SCALAR"
    }
  ],
  "asset": {
    "extras": {
      "author": "Digital Atlas of Ancient Life (https://sketchfab.com/DigitalAtlasOfAncientLife)",
      "license": "CC0-1.0 (http://creativecommons.org/publicdomain/zero/1.0/)",
      "source": "https://sketchfab.com/3d-models/pink-quartzite-4b9b488019804c4e957c4ebe702904eb",
      "title": "Pink Quartzite"
    },
    "generator": "Sketchfab-13.74.0",
    "version": "2.0"
  },
  "bufferViews": [
    {
      "buffer": 0,
      "byteLength": 2264568,
      "name": "floatBufferViews",
      "target": 34963
    },
    {
      "buffer": 0,
      "byteLength": 857040,
      "byteOffset": 2264568,
      "byteStride": 8,
      "name": "floatBufferViews",
      "target": 34962
    },
    {
      "buffer": 0,
      "byteLength": 2571120,
      "byteOffset": 3121608,
      "byteStride": 12,
      "name": "floatBufferViews",
      "target": 34962
    }
  ],
  "buffers": [
    {
      "byteLength": 5692728,
      "uri": "scene.bin"
    }
  ],
  "extensionsUsed": [
    "KHR_materials_unlit"
  ],
  "images": [
    {
      "uri": "textures/PickQuartzite_baseColor.jpeg"
    }
  ],
  "materials": [
    {
      "doubleSided": true,
      "extensions": {
        "KHR_materials_unlit": {}
      },
      "name": "PickQuartzite",
      "pbrMetallicRoughness": {
        "baseColorTexture": {
          "index": 0
        },
        "metallicFactor": 0.0
      }
    }
  ],
  "meshes": [
    {
      "name": "Object_0",
      "primitives": [
        {
          "attributes": {
            "NORMAL": 1,
            "POSITION": 0,
            "TEXCOORD_0": 2
          },
          "indices": 3,
          "material": 0,
          "mode": 4
        }
      ]
    },
    {
      "name": "Object_1",
      "primitives": [
        {
          "attributes": {
            "NORMAL": 5,
            "POSITION": 4,
            "TEXCOORD_0": 6
          },
          "indices": 7,
          "material": 0,
          "mode": 4
        }
      ]
    }
  ],
  "nodes": [
    {
      "children": [
        1
      ],
      "matrix": [
        -0.4113418161869049,
        -0.013532093726098334,
        -0.9113807082176208,
        0.0,
        -0.8100900650024414,
        -0.45289036631584173,
        0.3723498284816741,
        0.0,
        -0.41779422760009766,
        0.8914635181427002,
        0.17533053457736988,
        0.0,
        0.0,
        0.0,
        0.0,
        1.0
      ],
      "name": "Sketchfab_model"
    },
    {
      "children": [
        2,
        3
      ],
      "name": "PickQuartzite.obj.cleaner.materialmerger.gles"
    },
    {
      "mesh": 0,
      "name": "Object_2"
    },
    {
      "mesh": 1,
      "name": "Object_3"
    }
  ],
  "samplers": [
    {
      "magFilter": 9729,
      "minFilter": 9987,
      "wrapS": 10497,
      "wrapT": 10497
    }
  ],
  "scene": 0,
  "scenes": [
    {
      "name": "Sketchfab_Scene",
      "nodes": [
        0
      ]
    }
  ],
  "textures": [
    {
      "sampler": 0,
      "source": 0
    }
  ]
}
