{
  "accessors": [
    {
      "bufferView": 2,
      "componentType": 5126,
      "count": 65532,
      "max": [
        0.8159189820289612,
        7.390727996826172,
        0.42242398858070374
      ],
      "min": [
        -0.8427910208702087,
        6.335433006286621,
        -0.4902929961681366
      ],
      "type": "VEC3"
    },
    {
      "bufferView": 2,
      "byteOffset": 786384,
      "componentType": 5126,
      "count": 65532,
      "max": [
        0.9998773336410522,
        0.9999884963035583,
        0.9999904036521912
      ],
      "min": [
        -0.9999948740005493,
        -0.9999321699142456,
        -0.9999594688415527
      ],
      "type": "VEC3"
    },
    {
      "bufferView": 1,
      "componentType": 5126,
      "count": 65532,
      "max": [
        0.9841399788856506,
        0.9485300183296204
      ],
      "min": [
        0.12936800718307495,
        7.500000356230885e-05
      ],
      "type": "VEC2"
    },
    {
      "bufferView": 0,
      "componentType": 5125,
      "count": 354132,
      "type": "SCALAR"
    },
    {
      "bufferView": 2,
      "byteOffset": 1572768,
      "componentType": 5126,
      "count": 65532,
      "max": [
        0.8159189820289612,
        7.4979248046875,
        0.42242398858070374
      ],
      "min": [
        -0.629967987537384,
        6.344674110412598,
        -0.5052229762077332
      ],
      "type": "VEC3"
    },
    {
      "bufferView": 2,
      "byteOffset": 2359152,
      "componentType": 5126,
      "count": 65532,
      "max": [
        0.9999711513519287,
        0.999980628490448,
        0.9999902248382568
      ],
      "min": [
        -0.9996986389160156,
        -0.9999761581420898,
        -0.9999978542327881
      ],
      "type": "VEC3"
    },
    {
      "bufferView": 1,
      "byteOffset": 524256,
      "componentType": 5126,
      "count": 65532,
      "max": [
        0.9859070181846619,
        1.0
      ],
      "min": [
        3.600000127335079e-05,
        0.00015799999528098851
      ],
      "type": "VEC2"
    },
    {
      "bufferView": 0,
      "byteOffset": 1416528,
      "componentType": 5125,
      "count": 333633,
      "type": "SCALAR"
    },
    {
      "bufferView": 2,
      "byteOffset": 3145536,
      "componentType": 5126,
      "count": 7426,
      "max": [
        0.2618420124053955,
        7.458608150482178,
        0.3893029987812042
      ],
      "min": [
        -0.16136400401592255,
        6.335433006286621,
        -0.5024909973144531
      ],
      "type": "VEC3"
    },
    {
      "bufferView": 2,
      "byteOffset": 3234648,
      "componentType": 5126,
      "count": 7426,
      "max": [
        0.9986765384674072,
        0.9998923540115356,
        0.9999904036521912
      ],
      "min": [
        -0.975522518157959,
        -0.9999746680259705,
        -0.9999982714653015
      ],
      "type": "VEC3"
    },
    {
      "bufferView": 1,
      "byteOffset": 1048512,
      "componentType": 5126,
      "count": 7426,
      "max": [
        0.9585790038108826,
        0.8901969790458679
      ],
      "min": [
        0.05193600058555603,
        0.016222000122070313
      ],
      "type": "VEC2"
    },
    {
      "bufferView": 0,
      "byteOffset": 2751060,
      "componentType": 5125,
      "count": 24189,
      "type": "SCALAR"
    }
  ],
  "asset": {
    "extras": {
      "author": "Digital Atlas of Ancient Life (https://sketchfab.com/DigitalAtlasOfAncientLife)",
      "license": "CC0-1.0 (http://creativecommons.org/publicdomain/zero/1.0/)",
      "source": "https://sketchfab.com/3d-models/fossiliferous-limestone-eac8c3841acf4fe5959d5977639cd6ed",
      "title": "Fossiliferous Limestone"
    },
    "generator": "Sketchfab-13.74.0",
    "version": "2.0"
  },
  "bufferViews": [
    {
      "buffer": 0,
      "byteLength": 2847816,
      "name": "floatBufferViews",
      "target": 34963
    },
    {
      "buffer": 0,
      "byteLength": 1107920,
      "byteOffset": 2847816,
      "byteStride": 8,
      "name": "floatBufferViews",
      "target": 34962
    },
    {
      "buffer": 0,
      "byteLength": 3323760,
      "byteOffset": 3955736,
      "byteStride": 12,
      "name": "floatBufferViews",
      "target": 34962
    }
  ],
  "buffers": [
    {
      "byteLength": 7279496,
      "uri": "scene.bin"
    }
  ],
  "extensionsUsed": [
    "KHR_materials_unlit"
  ],
  "images": [
    {
      "uri": "textures/lowerKopeFmLimestone_baseColor.jpeg"
    }
  ],
  "materials": [
    {
      "doubleSided": true,
      "extensions": {
        "KHR_materials_unlit": {}
      },
      "name": "lowerKopeFmLimestone",
      "pbrMetallicRoughness": {
        "baseColorTexture": {
          "index": 0
        },
        "metallicFactor": 0.0
      }
    }
  ],
  "meshes": [
    {
      "name": "Object_0",
      "primitives": [
        {
          "attributes": {
            "NORMAL": 1,
            "POSITION": 0,
            "TEXCOORD_0": 2
          },
          "indices": 3,
          "material": 0,
          "mode": 4
        }
      ]
    },
    {
      "name": "Object_1",
      "primitives": [
        {
          "attributes": {
            "NORMAL": 5,
            "POSITION": 4,
            "TEXCOORD_0": 6
          },
          "indices": 7,
          "material": 0,
          "mode": 4
        }
      ]
    },
    {
      "name": "Object_2",
      "primitives": [
        {
          "attributes": {
            "NORMAL": 9,
            "POSITION": 8,
            "TEXCOORD_0": 10
          },
          "indices": 11,
          "material": 0,
          "mode": 4
        }
      ]
    }
  ],
  "nodes": [
    {
      "children": [
        1
      ],
      "matrix": [
        -0.9285585880279541,
        0.09387272596359261,
        -0.35911956429481506,
        0.0,
        -0.37089407444000244,
        -0.27300271391868614,
        0.8876413106918334,
        0.0,
        -0.014715307392179966,
        0.9574222564697265,
        0.2883158326148989,
        0.0,
        0.0,
        0.0,
        0.0,
        1.0
      ],
      "name": "Sketchfab_model"
    },
    {
      "children": [
        2,
        3,
        4
      ],
      "name": "lowerKopeFmLimestone.obj.cleaner.materialmerger.gles"
    },
    {
      "mesh": 0,
      "name": "Object_2"
    },
    {
      "mesh": 1,
      "name": "Object_3"
    },
    {
      "mesh": 2,
      "name": "Object_4"
    }
  ],
  "samplers": [
    {
      "magFilter": 9729,
      "minFilter": 9987,
      "wrapS": 10497,
      "wrapT": 10497
    }
  ],
  "scene": 0,
  "scenes": [
    {
      "name": "Sketchfab_Scene",
      "nodes": [
        0
      ]
    }
  ],
  "textures": [
    {
      "sampler": 0,
      "source": 0
    }
  ]
}
